Coordinates
nRows=286
nColumns=2
inDegrees=yes
endheader
time	ankle_angle_r	
3.72581	 18.543355	
3.75907	 18.466483	
3.79234	 18.427536	
3.8256	 18.430502	
3.85887	 18.449958	
3.89214	 18.462161	
3.9254	 18.465046	
3.95867	 18.472827	
3.99194	 18.492823	
4.0252	 18.512744	
4.05847	 18.520356	
4.09173	 18.520695	
4.125	 18.518934	
4.15827	 18.510285	
4.19153	 18.495727	
4.2248	 18.483863	
4.25806	 18.480613	
4.29133	 18.485061	
4.3246	 18.487381	
4.35786	 18.478402	
4.39113	 18.464012	
4.4244	 18.456581	
4.45766	 18.457815	
4.49093	 18.461859	
4.52419	 18.462568	
4.55746	 18.455751	
4.59073	 18.444869	
4.62399	 18.438973	
4.65726	 18.445049	
4.69052	 18.463573	
4.72379	 18.485875	
4.75706	 18.500617	
4.79032	 18.504279	
4.82359	 18.500323	
4.85685	 18.493255	
4.89012	 18.486376	
4.92339	 18.481218	
4.95665	 18.478319	
4.98992	 18.475432	
5.02319	 18.469526	
5.05645	 18.464055	
5.08972	 18.462285	
5.12298	 18.461127	
5.15625	 18.462442	
5.18952	 18.470617	
5.22278	 18.478156	
5.25605	 18.476010	
5.28931	 18.469835	
5.32258	 18.467817	
5.35585	 18.466679	
5.38911	 18.463046	
5.42238	 18.459975	
5.45565	 18.458103	
5.48891	 18.456975	
5.52218	 18.457525	
5.55544	 18.456535	
5.58871	 18.450314	
5.62198	 18.440683	
5.65524	 18.429980	
5.68851	 18.417532	
5.72177	 18.404484	
5.75504	 18.396797	
5.78831	 18.397333	
5.82157	 18.396785	
5.85484	 18.387532	
5.8881	 18.379141	
5.92137	 18.381649	
5.95464	 18.389932	
5.9879	 18.393615	
6.02117	 18.389838	
6.05444	 18.387857	
6.0877	 18.399644	
6.12097	 18.421431	
6.15423	 18.436602	
6.1875	 18.436649	
6.22077	 18.426894	
6.25403	 18.419615	
6.2873	 18.424025	
6.32056	 18.434849	
6.35383	 18.437681	
6.3871	 18.427058	
6.42036	 18.411044	
6.45363	 18.399017	
6.4869	 18.393450	
6.52016	 18.393393	
6.55343	 18.396136	
6.58669	 18.397169	
6.61996	 18.396112	
6.65323	 18.398870	
6.68649	 18.408520	
6.71976	 18.419606	
6.75302	 18.426116	
6.78629	 18.427572	
6.81956	 18.426151	
6.85282	 18.425998	
6.88609	 18.431565	
6.91935	 18.440048	
6.95262	 18.442145	
6.98589	 18.435655	
7.01915	 18.433010	
7.05242	 18.449438	
7.08569	 18.482731	
7.11895	 18.511589	
7.15222	 18.517461	
7.18548	 18.500329	
7.21875	 18.474741	
7.25202	 18.457519	
7.28528	 18.455473	
7.31855	 18.463021	
7.35181	 18.473064	
7.38508	 18.481987	
7.41835	 18.484264	
7.45161	 18.479881	
7.48488	 18.480357	
7.51815	 18.489469	
7.55141	 18.494953	
7.58468	 18.486379	
7.61794	 18.466407	
7.65121	 18.446934	
7.68448	 18.438497	
7.71774	 18.445169	
7.75101	 18.465378	
7.78427	 18.490636	
7.81754	 18.511784	
7.85081	 18.525338	
7.88407	 18.530882	
7.91734	 18.530028	
7.9506	 18.523589	
7.98387	 18.510623	
8.01714	 18.497013	
8.0504	 18.491912	
8.08367	 18.494854	
8.11694	 18.502030	
8.1502	 18.513739	
8.18347	 18.528048	
8.21673	 18.539348	
8.25	 18.540386	
8.28327	 18.525593	
8.31653	 18.502487	
8.3498	 18.491619	
8.38306	 18.499256	
8.41633	 18.508412	
8.4496	 18.507106	
8.48286	 18.496784	
8.51613	 18.483295	
8.5494	 18.478591	
8.58266	 18.488491	
8.61593	 18.500711	
8.64919	 18.502306	
8.68246	 18.497081	
8.71573	 18.496491	
8.74899	 18.504441	
8.78226	 18.513951	
8.81552	 18.513227	
8.84879	 18.499653	
8.88206	 18.482987	
8.91532	 18.471418	
8.94859	 18.469731	
8.98185	 18.483539	
9.01512	 18.508028	
9.04839	 18.526444	
9.08165	 18.525401	
9.11492	 18.502400	
9.14819	 18.468868	
9.18145	 18.445174	
9.21472	 18.439460	
9.24798	 18.442258	
9.28125	 18.447425	
9.31452	 18.460357	
9.34778	 18.481516	
9.38105	 18.500727	
9.41431	 18.512008	
9.44758	 18.517529	
9.48085	 18.518671	
9.51411	 18.517356	
9.54738	 18.519513	
9.58065	 18.526614	
9.61391	 18.529565	
9.64718	 18.520377	
9.68044	 18.505151	
9.71371	 18.494988	
9.74698	 18.491940	
9.78024	 18.491438	
9.81351	 18.489852	
9.84677	 18.488014	
9.88004	 18.490524	
9.91331	 18.498329	
9.94657	 18.503659	
9.97984	 18.497719	
10.0131	 18.482282	
10.0464	 18.470559	
10.0796	 18.474095	
10.1129	 18.492256	
10.1462	 18.518163	
10.1794	 18.546398	
10.2127	 18.573478	
10.246	 18.597257	
10.2792	 18.614563	
10.3125	 18.622241	
10.3458	 18.621337	
10.379	 18.614159	
10.4123	 18.603052	
10.4456	 18.591571	
10.4788	 18.577598	
10.5121	 18.555725	
10.5454	 18.528781	
10.5786	 18.505034	
10.6119	 18.488607	
10.6452	 18.476828	
10.6784	 18.464712	
10.7117	 18.454136	
10.745	 18.452673	
10.7782	 18.458729	
10.8115	 18.459464	
10.8448	 18.447991	
10.878	 18.431205	
10.9113	 18.419890	
10.9446	 18.418734	
10.9778	 18.422769	
11.0111	 18.426001	
11.0444	 18.432874	
11.0776	 18.446101	
11.1109	 18.458209	
11.1442	 18.467582	
11.1774	 18.478818	
11.2107	 18.489711	
11.244	 18.493151	
11.2772	 18.486986	
11.3105	 18.478180	
11.3437	 18.471440	
11.377	 18.462101	
11.4103	 18.451151	
11.4435	 18.448668	
11.4768	 18.456416	
11.5101	 18.464993	
11.5433	 18.466204	
11.5766	 18.457279	
11.6099	 18.441178	
11.6431	 18.425761	
11.6764	 18.414283	
11.7097	 18.408741	
11.7429	 18.417437	
11.7762	 18.436366	
11.8095	 18.450313	
11.8427	 18.461901	
11.876	 18.479754	
11.9093	 18.491601	
11.9425	 18.481385	
11.9758	 18.455033	
12.0091	 18.435144	
12.0423	 18.434686	
12.0756	 18.443476	
12.1089	 18.447934	
12.1421	 18.447802	
12.1754	 18.446152	
12.2087	 18.445716	
12.2419	 18.452545	
12.2752	 18.465845	
12.3085	 18.476832	
12.3417	 18.480462	
12.375	 18.474080	
12.4083	 18.458089	
12.4415	 18.445737	
12.4748	 18.450906	
12.5081	 18.466426	
12.5413	 18.473109	
12.5746	 18.465648	
12.6079	 18.458288	
12.6411	 18.463962	
12.6744	 18.476402	
12.7077	 18.483331	
12.7409	 18.484979	
12.7742	 18.489193	
12.8075	 18.497681	
12.8407	 18.504500	
12.874	 18.508689	
12.9073	 18.515895	
12.9405	 18.523464	
12.9738	 18.521815	
13.0071	 18.511482	
13.0403	 18.503283	
13.0736	 18.503145	
13.1069	 18.504840	
13.1401	 18.499615	
13.1734	 18.489573	
13.2067	 18.481306	
